<svg xmlns="http://www.w3.org/2000/svg" viewBox="0 0 400 400">
  <defs>
    <filter id="grainH"><feTurbulence type="fractalNoise" baseFrequency="0.9" numOctaves="2" result="n"/><feColorMatrix in="n" type="matrix" values="0 0 0 0 1  0 0 0 0 1  0 0 0 0 1  0 0 0 0.035 0"/></filter>
    <linearGradient id="bgH" x1="0" y1="0" x2="0" y2="1">
      <stop offset="0%" stop-color="#1c1b1b"/>
      <stop offset="100%" stop-color="#0e0e0e"/>
    </linearGradient>
  </defs>
  <rect width="400" height="400" fill="url(#bgH)"/>
  <rect width="400" height="400" filter="url(#grainH)"/>

  <!-- silhueta do moletom oversized -->
  <g fill="none" stroke="#e5e2e1" stroke-width="3" stroke-linejoin="round">
    <path d="M140 95 Q200 60 260 95 L285 100 L330 150 L300 185 L275 165 L275 330 Q200 345 125 330 L125 165 L100 185 L70 150 L115 100 Z" fill="#201f1f"/>
    <!-- capuz -->
    <path d="M155 98 Q200 70 245 98 Q235 130 200 132 Q165 130 155 98 Z" fill="#2a2a2a"/>
    <!-- bolso canguru -->
    <path d="M150 250 Q200 235 250 250 L246 300 Q200 315 154 300 Z" fill="#171717"/>
    <!-- cordões -->
    <line x1="188" y1="105" x2="182" y2="165" stroke="#c3f400" stroke-width="3"/>
    <line x1="212" y1="105" x2="218" y2="165" stroke="#c3f400" stroke-width="3"/>
    <circle cx="182" cy="167" r="3.5" fill="#c3f400" stroke="none"/>
    <circle cx="218" cy="167" r="3.5" fill="#c3f400" stroke="none"/>
    <!-- costura punhos -->
    <path d="M108 178 L128 168" stroke="#8e9379"/>
    <path d="M292 178 L272 168" stroke="#8e9379"/>
  </g>

  <!-- box logo desbotado -->
  <g transform="translate(200,190)">
    <rect x="-38" y="-20" width="76" height="40" fill="none" stroke="#c3f400" stroke-width="2" opacity="0.85"/>
    <text x="0" y="8" text-anchor="middle" font-family="Anton, sans-serif" font-size="22" fill="#c3f400" opacity="0.85">CB</text>
  </g>

  <text x="20" y="380" font-family="'Space Mono', monospace" font-size="11" letter-spacing="2" fill="#8e9379">CORRE BRECHÓ — ARCHIVE 90s</text>
</svg>
